<svg width="200" height="200" viewBox="0 0 200 200" fill="none" xmlns="http://www.w3.org/2000/svg">
<circle cx="100" cy="100" r="100" fill="#E0E7FF"/>
<rect x="50" y="40" width="100" height="120" rx="10" fill="white"/>
<rect x="60" y="50" width="80" height="80" rx="5" fill="#F3F4F6"/>
<rect x="70" y="140" width="60" height="10" rx="5" fill="#6C63FF"/>
<path d="M100 80C111.046 80 120 71.0457 120 60C120 48.9543 111.046 40 100 40C88.9543 40 80 48.9543 80 60C80 71.0457 88.9543 80 100 80Z" fill="#6C63FF"/>
<path d="M100 90C77.9086 90 60 107.909 60 130H140C140 107.909 122.091 90 100 90Z" fill="#6C63FF"/>
</svg>
